<svg xmlns="http://www.w3.org/2000/svg" viewBox="0 0 512 512" width="512" height="512">
  <defs>
    <radialGradient id="bg" cx="50%" cy="42%" r="70%">
      <stop offset="0%" stop-color="#211712"/>
      <stop offset="100%" stop-color="#130E0C"/>
    </radialGradient>
  </defs>
  <rect width="512" height="512" fill="url(#bg)"/>
  <g fill="none" stroke="#E9A45C" stroke-width="11" stroke-linecap="round" stroke-linejoin="round">
    <path d="M372 150 V430"/><path d="M418 150 V430"/>
    <path d="M388 162 V420" stroke-width="6"/><path d="M402 162 V420" stroke-width="6"/>
    <path d="M360 150 C360 136 366 130 378 130 H412 C424 130 430 136 430 150"/>
    <path d="M360 430 H430"/>
    <path d="M214 214 C200 202 196 170 208 150 C215 135 230 127 244 132 C254 136 258 143 258 151 L272 188 C274 194 271 199 264 199 L257 205 C262 212 263 221 256 231 C249 243 233 245 224 238 C217 233 215 224 215 214 Z"/>
    <path d="M198 150 m-13 0 a13 13 0 1 0 26 0 a13 13 0 1 0 -26 0" stroke-width="8"/>
    <path d="M212 154 C226 145 246 147 256 156" stroke-width="7"/>
    <path d="M222 240 L216 266"/><path d="M256 232 C258 248 254 258 262 270"/>
    <path d="M262 272 C300 264 324 240 332 210 C338 188 346 172 356 162"/>
    <path d="M356 162 C363 155 370 154 375 160" stroke-width="8"/>
    <path d="M216 266 C188 274 168 292 160 322"/>
    <path d="M262 270 C282 300 292 336 288 372"/>
    <path d="M206 288 C220 320 244 342 258 372" stroke-width="6"/>
    <path d="M182 306 C214 326 246 336 276 332" stroke-width="6"/>
    <path d="M164 322 C176 348 202 360 232 352"/>
    <path d="M232 344 L232 362" stroke-width="8"/>
    <path d="M160 372 C200 392 250 390 288 372" stroke-width="9"/>
  </g>
</svg>
